<svg width="60" height="60" viewBox="0 0 60 60" fill="none" xmlns="http://www.w3.org/2000/svg">
<g clip-path="url(#clip0_95_4870)">
<path d="M41.1116 28.7789L20.6031 35.9039C18.4089 36.6662 16.3032 34.5605 17.0655 32.3663L24.1905 11.8577C24.8635 9.92039 27.3312 9.35426 28.7814 10.8045L42.1648 24.1879C43.615 25.6383 43.0489 28.1059 41.1116 28.7789Z" stroke="#66C121" stroke-width="1.8" stroke-miterlimit="10" stroke-linecap="round" stroke-linejoin="round"></path>
<path d="M51.212 6.72912L46.2402 1.75732L37.9539 10.0437L42.9257 15.0154L51.212 6.72912Z" stroke="#66C121" stroke-width="1.8" stroke-miterlimit="10" stroke-linecap="round" stroke-linejoin="round"></path>
<path d="M40.4389 12.5303L29.418 23.5512" stroke="#66C121" stroke-width="1.8" stroke-miterlimit="10" stroke-linecap="round" stroke-linejoin="round"></path>
<path d="M39.3946 49.2285H20.5664V58.242H39.3946V49.2285Z" stroke="black" stroke-width="1.8" stroke-miterlimit="10" stroke-linecap="round" stroke-linejoin="round"></path>
<path d="M49.2383 40.2051H30.4102V49.2186H49.2383V40.2051Z" stroke="black" stroke-width="1.8" stroke-miterlimit="10" stroke-linecap="round" stroke-linejoin="round"></path>
<path d="M11.0352 40.2051H1.75781V49.2186H11.0352V40.2051Z" stroke="black" stroke-width="1.8" stroke-miterlimit="10" stroke-linecap="round" stroke-linejoin="round"></path>
<path d="M39.4726 58.2422L58.2422 58.2422L58.2422 49.2287L39.4726 49.2287L39.4726 58.2422Z" stroke="black" stroke-width="1.8" stroke-miterlimit="10" stroke-linecap="round" stroke-linejoin="round"></path>
<path d="M20.5274 49.2285H1.75781V58.242H20.5274V49.2285Z" stroke="black" stroke-width="1.8" stroke-miterlimit="10" stroke-linecap="round" stroke-linejoin="round"></path>
</g>
<defs>
<clipPath id="clip0_95_4870">
<rect width="60" height="60" fill="white"></rect>
</clipPath>
</defs>
</svg>