<svg width="60" height="60" viewBox="0 0 60 60" fill="none" xmlns="http://www.w3.org/2000/svg">
<g clip-path="url(#clip0_163_1116)">
<path d="M31.623 2.91331C33.2895 3.06331 34.9547 3.27542 36.6199 3.54847C37.0066 3.61175 37.3957 3.64339 37.7812 3.64339C39.6727 3.64339 41.5078 2.89339 42.8684 1.53401C43.6781 0.723077 44.9988 0.649249 45.8461 1.42034C46.7508 2.24417 46.7766 3.6469 45.9211 4.50237C44.1809 6.15003 43.1227 8.52894 43.4461 10.9535C45.1395 23.6121 44.966 36.2719 42.9258 48.9305" stroke="black" stroke-width="1.8" stroke-miterlimit="10" stroke-linecap="round" stroke-linejoin="round"></path>
<path d="M14.9394 52.9078C14.7519 52.8785 14.5656 52.8492 14.3781 52.8188C12.1164 52.452 9.81596 53.1949 8.19526 54.8145L8.15307 54.8578C7.2976 55.7133 5.89604 55.6875 5.07221 54.7828C4.30112 53.9356 4.37495 52.6149 5.18588 51.8051C6.90737 50.202 7.7851 47.8734 7.47338 45.5309C5.89721 33.6832 5.88666 22.091 7.44057 10.7531C7.76049 8.41758 6.85815 6.09258 5.14252 4.50234C4.25659 3.61523 4.31518 2.14102 5.32065 1.33242C5.70151 1.02539 6.16088 0.878906 6.62143 0.878906C7.19331 0.878906 7.76752 1.10508 8.19526 1.53398C9.81362 3.15117 12.1093 3.89883 14.3664 3.53203C18.8441 2.8043 28.0232 2.84297 32.501 3" stroke="black" stroke-width="1.8" stroke-miterlimit="10" stroke-linecap="round" stroke-linejoin="round"></path>
<path d="M22.8152 21.7886H37.2797V30.3034H13.5996V21.7886H22.8152Z" stroke="black" stroke-width="1.8" stroke-miterlimit="10" stroke-linecap="round" stroke-linejoin="round"></path>
<path d="M31.8261 17.5316H19.0547C19.0547 15.1805 20.9606 13.2744 23.3119 13.2744H27.5691C29.9202 13.2745 31.8261 15.1805 31.8261 17.5316Z" stroke="black" stroke-width="1.8" stroke-miterlimit="10" stroke-linecap="round" stroke-linejoin="round"></path>
<path d="M31.8261 34.5576H19.0547C19.0547 36.9087 20.9606 38.8148 23.3119 38.8148H27.5691C29.9202 38.8148 31.8261 36.9087 31.8261 34.5576Z" stroke="black" stroke-width="1.8" stroke-miterlimit="10" stroke-linecap="round" stroke-linejoin="round"></path>
<path d="M30.0012 59.1212H11.8008L16.4133 49.9935C18.6609 45.545 23.2207 42.7407 28.2059 42.7407C32.9355 42.7407 37.2832 45.2673 39.6352 49.3243" stroke="#66C121" stroke-width="1.8" stroke-miterlimit="10" stroke-linecap="round" stroke-linejoin="round"></path>
<path d="M50.223 51.4489C51.7043 52.5739 52.9395 54.0388 53.8031 55.7661L55.4812 59.1212H30L31.6781 55.7661C33.7723 51.5755 38.0555 48.9282 42.7406 48.9282C44.1633 48.9282 45.5484 49.172 46.8469 49.6302" stroke="#66C121" stroke-width="1.8" stroke-miterlimit="10" stroke-linecap="round" stroke-linejoin="round"></path>
<circle cx="24.541" cy="48.2002" r="0.878906" fill="#66C121"></circle>
<circle cx="31.8262" cy="48.2002" r="0.878906" fill="#66C121"></circle>
<circle cx="28.1797" cy="51.8408" r="0.878906" fill="#66C121"></circle>
<circle cx="20.9004" cy="51.8408" r="0.878906" fill="#66C121"></circle>
<circle cx="37.2812" cy="55.4805" r="0.878906" fill="#66C121"></circle>
<circle cx="42.7402" cy="54.3091" r="0.878906" fill="#66C121"></circle>
<circle cx="48.2012" cy="55.4805" r="0.878906" fill="#66C121"></circle>
</g>
<defs>
<clipPath id="clip0_163_1116">
<rect width="60" height="60" fill="white"></rect>
</clipPath>
</defs>
</svg>