<svg width="16" height="16" viewBox="0 0 16 16" fill="none" xmlns="http://www.w3.org/2000/svg">
<path d="M11.334 1.33301H4.66732C2.82637 1.33301 1.33398 2.82539 1.33398 4.66634V11.333C1.33398 13.174 2.82637 14.6663 4.66732 14.6663H11.334C13.1749 14.6663 14.6673 13.174 14.6673 11.333V4.66634C14.6673 2.82539 13.1749 1.33301 11.334 1.33301Z" stroke="white" stroke-opacity="0.7" stroke-width="1.33333" stroke-linecap="round" stroke-linejoin="round"></path>
<path d="M10.6658 7.5802C10.7481 8.13503 10.6533 8.70168 10.395 9.19954C10.1367 9.69741 9.72792 10.1011 9.2269 10.3533C8.72589 10.6055 8.15812 10.6933 7.60434 10.6042C7.05057 10.515 6.53899 10.2536 6.14238 9.85698C5.74577 9.46036 5.48431 8.94878 5.3952 8.39501C5.30609 7.84124 5.39386 7.27346 5.64604 6.77245C5.89821 6.27144 6.30194 5.86269 6.79981 5.60436C7.29768 5.34603 7.86432 5.25126 8.41915 5.33353C8.9851 5.41746 9.50905 5.68118 9.91362 6.08574C10.3182 6.4903 10.5819 7.01425 10.6658 7.5802Z" stroke="white" stroke-opacity="0.7" stroke-width="1.33333" stroke-linecap="round" stroke-linejoin="round"></path>
<path d="M11.666 4.33301H11.6727" stroke="white" stroke-opacity="0.7" stroke-width="1.33333" stroke-linecap="round" stroke-linejoin="round"></path>
</svg>