<svg width="231" height="44" viewBox="0 0 231 44" fill="none" xmlns="http://www.w3.org/2000/svg">
<g clip-path="url(#clip0_163_1380)">
<mask id="mask0_163_1380" style="mask-type:luminance" maskUnits="userSpaceOnUse" x="-192" y="-752" width="615" height="932">
<path d="M-191.803 -751.6H422.951V179.214H-191.803V-751.6Z" fill="white"></path>
</mask>
<g mask="url(#mask0_163_1380)">
<path fill-rule="evenodd" clip-rule="evenodd" d="M112.953 22.2845C112.953 16.2682 116.354 11.1947 122.541 11.1947C129.507 11.1947 131.754 16.8519 131.754 21.0274C131.754 21.7607 131.709 22.5988 131.649 22.9131H115.934C116.144 27.6723 118.661 30.5457 122.9 30.5457C125.477 30.5457 127.245 29.8723 129.132 27.8818L131.125 29.6029C128.713 32.0573 126.316 33.1049 122.9 33.1049C116.519 33.1049 112.953 28.3457 112.953 22.2845ZM128.982 20.8178C128.982 20.3988 128.982 19.9349 128.923 19.5158C128.668 16.6423 126.735 13.6042 122.541 13.6042C118.661 13.6042 116.309 16.5825 115.934 20.8178H128.982ZM137.626 11.5689H140.353V15.2804C141.506 12.5117 143.918 11.1947 146.734 11.1947C149.88 11.1947 152.337 12.6614 153.281 15.909C154.539 12.826 157.161 11.1947 160.307 11.1947C165.43 11.1947 167.632 14.9063 167.632 20.3539V32.7906H164.861V20.7131C164.861 16.328 163.438 13.8587 159.827 13.8587C156.277 13.8587 154.015 16.5376 154.015 20.1893V32.7906H151.244V19.9349C151.244 16.1634 149.731 13.8587 146.21 13.8587C142.66 13.8587 140.458 16.5376 140.458 20.1893V32.7906H137.626V11.5689ZM173.025 22.2995C173.025 16.2832 176.381 11.2097 182.613 11.2097C189.519 11.2097 191.826 16.8519 191.826 21.0423C191.826 21.7757 191.721 22.6138 191.676 22.9281H176.006C176.216 27.6723 178.688 30.5607 182.927 30.5607C185.489 30.5607 187.272 29.8723 189.204 27.8818L191.152 29.6178C188.74 32.0723 186.388 33.1199 182.927 33.1199C176.531 33.1199 173.025 28.3607 173.025 22.2995ZM188.995 20.8328C188.995 20.4138 188.995 19.9349 188.95 19.5158C188.68 16.6423 186.792 13.6192 182.553 13.6192C178.688 13.6192 176.321 16.5974 176.006 20.8328H188.995ZM197.593 11.5689H200.365V15.1757C201.728 12.5716 204.245 11.2097 207.061 11.2097C211.99 11.2097 214.342 14.7566 214.446 19.3661V32.8056H211.615V19.9947C211.615 16.1185 209.788 13.8287 206.282 13.8287C202.717 13.8287 200.365 16.1185 200.365 20.2491V32.8056H197.593V11.5689ZM222.206 26.8342V13.9185H218.641V11.5689H222.251V5.40288L224.978 3.35254V11.5689H230.94V13.9185H224.978V26.4151C224.978 29.3934 226.176 30.6505 228.423 30.6505C229.367 30.6505 230.311 30.3362 230.94 30.1267L231 32.7008C230.311 32.9104 229.157 33.1049 227.959 33.1049C224.184 33.1049 222.206 30.9199 222.206 26.8342Z" fill="#929E9C"></path>
<path d="M89.7643 11.0897H83.9518L73.84 21.925V11.0897H69.5406V32.955H73.84V27.2529L77.9297 22.9577L84.4162 32.8502L84.4762 32.955H89.8092L80.9108 20.0842L89.7643 11.0897ZM106.003 25.1577L105.943 25.3672C104.895 27.9862 103.112 29.1835 100.296 29.1835C96.2509 29.1835 93.9588 26.5196 93.9588 21.8652C93.9588 17.4801 96.3108 14.8611 100.236 14.8611C103.272 14.8611 105.159 16.1132 105.898 18.6175L105.943 18.8271L109.973 17.2706L109.868 17.0611C108.085 12.9754 104.685 10.7305 100.296 10.7305C92.4907 10.7305 89.7044 16.8516 89.7044 22.0148C89.7044 27.1931 92.4907 33.2692 100.296 33.2692C104.685 33.2692 108.19 30.9645 109.928 26.9386L109.973 26.774L106.003 25.1577ZM60.5073 14.9209V24.9033C60.5073 27.5672 59.983 29.1386 57.3014 29.1386C54.7398 29.1386 54.1705 26.8339 54.0656 25.472V25.2624L49.8711 25.7414V25.9509C50.1407 29.4978 52.5376 33.1196 57.3014 33.1196C62.1252 33.1196 64.7468 30.1863 64.7468 24.8434V10.9999H60.5073V14.9209Z" fill="#78C346"></path>
<path d="M3.20508 10.566C6.52077 12.4816 10.0462 14.1728 13.7813 15.6395C16.8474 16.7968 19.414 17.3206 21.4813 17.2109C23.4688 17.1111 25.8956 16.3279 28.7619 14.8612C31.9677 13.2549 33.9052 12.2771 34.5743 11.9279C36.5917 10.8803 38.3694 9.99229 39.9074 9.26395C35.9226 3.66667 29.3761 0 22.0057 0C14.036 0 7.07006 4.25034 3.20508 10.566Z" fill="#78C246"></path>
<path d="M22.0074 43.94C34.1566 43.94 43.9988 34.1073 43.9988 21.9699C43.9988 18.3032 43.1 14.9059 41.527 11.8828C40.758 12.4016 40.0989 12.8356 39.5496 13.1849C36.6833 15.31 34.7808 16.8266 33.842 17.7345C31.9145 19.6202 29.5226 22.0447 26.6663 25.008C25.2681 26.5046 23.9399 28.2456 22.6815 30.2311C22.3319 30.7898 21.2683 32.6007 19.4906 35.6638C18.8914 36.7114 18.5918 37.9885 18.5918 39.4951C18.5918 41.6502 19.3608 43.1318 20.8988 43.94C21.2483 43.94 21.6179 43.94 22.0074 43.94Z" fill="#0646A5"></path>
<path d="M6.65136 37.7141C7.00091 35.6188 8.18936 33.334 10.2167 30.8597C11.3353 29.5027 12.5237 28.1259 13.7821 26.729C14.4113 26.0705 14.7259 25.4769 14.7259 24.9481C14.7259 23.9005 13.4875 22.6134 11.0107 21.0869C6.88606 18.5027 4.61401 17.056 4.19455 16.7467C3.14591 15.8687 2.22211 15.0456 1.42315 14.2773C0.479377 16.6869 0 19.3059 0 21.9699C0 28.1358 2.57665 33.6882 6.65136 37.7141Z" fill="#929E9C"></path>
</g>
</g>
<defs>
<clipPath id="clip0_163_1380">
<rect width="231" height="44" fill="white"></rect>
</clipPath>
</defs>
</svg>