<svg width="16" height="16" viewBox="0 0 16 16" fill="none" xmlns="http://www.w3.org/2000/svg">
<path d="M10.666 5.33301C11.7269 5.33301 12.7443 5.75444 13.4944 6.50458C14.2446 7.25473 14.666 8.27214 14.666 9.33301V13.9997H11.9993V9.33301C11.9993 8.97939 11.8589 8.64025 11.6088 8.3902C11.3588 8.14015 11.0196 7.99967 10.666 7.99967C10.3124 7.99967 9.97326 8.14015 9.72321 8.3902C9.47316 8.64025 9.33268 8.97939 9.33268 9.33301V13.9997H6.66602V9.33301C6.66602 8.27214 7.08744 7.25473 7.83759 6.50458C8.58773 5.75444 9.60515 5.33301 10.666 5.33301Z" stroke="white" stroke-opacity="0.7" stroke-width="1.33333" stroke-linecap="round" stroke-linejoin="round"></path>
<path d="M4.00065 6H1.33398V14H4.00065V6Z" stroke="white" stroke-opacity="0.7" stroke-width="1.33333" stroke-linecap="round" stroke-linejoin="round"></path>
<path d="M2.66732 3.99967C3.4037 3.99967 4.00065 3.40272 4.00065 2.66634C4.00065 1.92996 3.4037 1.33301 2.66732 1.33301C1.93094 1.33301 1.33398 1.92996 1.33398 2.66634C1.33398 3.40272 1.93094 3.99967 2.66732 3.99967Z" stroke="white" stroke-opacity="0.7" stroke-width="1.33333" stroke-linecap="round" stroke-linejoin="round"></path>
</svg>