<svg width="36" height="36" viewBox="0 0 36 36" fill="none" xmlns="http://www.w3.org/2000/svg">
<g clip-path="url(#clip0_163_1151)">
<path d="M16.8711 22.5185C19.9906 22.5185 22.5195 19.9896 22.5195 16.8701C22.5195 13.7506 19.9906 11.2217 16.8711 11.2217C13.7515 11.2217 11.2227 13.7506 11.2227 16.8701C11.2227 19.9896 13.7515 22.5185 16.8711 22.5185Z" stroke="#0050A9" stroke-width="1.8" stroke-miterlimit="10" stroke-linecap="round" stroke-linejoin="round"></path>
<path d="M4.44375 7.83281C6.31548 7.83281 7.83281 6.31548 7.83281 4.44375C7.83281 2.57202 6.31548 1.05469 4.44375 1.05469C2.57202 1.05469 1.05469 2.57202 1.05469 4.44375C1.05469 6.31548 2.57202 7.83281 4.44375 7.83281Z" stroke="#0050A9" stroke-width="1.8" stroke-miterlimit="10" stroke-linecap="round" stroke-linejoin="round"></path>
<path d="M31.557 34.9451C33.4288 34.9451 34.9461 33.4278 34.9461 31.5561C34.9461 29.6843 33.4288 28.167 31.557 28.167C29.6853 28.167 28.168 29.6843 28.168 31.5561C28.168 33.4278 29.6853 34.9451 31.557 34.9451Z" stroke="#0050A9" stroke-width="1.8" stroke-miterlimit="10" stroke-linecap="round" stroke-linejoin="round"></path>
<path d="M31.557 12.3514C33.4288 12.3514 34.9461 10.834 34.9461 8.96231C34.9461 7.09058 33.4288 5.57324 31.557 5.57324C29.6853 5.57324 28.168 7.09058 28.168 8.96231C28.168 10.834 29.6853 12.3514 31.557 12.3514Z" stroke="#0050A9" stroke-width="1.8" stroke-miterlimit="10" stroke-linecap="round" stroke-linejoin="round"></path>
<path d="M7.83242 32.6858C9.70415 32.6858 11.2215 31.1685 11.2215 29.2968C11.2215 27.425 9.70415 25.9077 7.83242 25.9077C5.96069 25.9077 4.44336 27.425 4.44336 29.2968C4.44336 31.1685 5.96069 32.6858 7.83242 32.6858Z" stroke="#0050A9" stroke-width="1.8" stroke-miterlimit="10" stroke-linecap="round" stroke-linejoin="round"></path>
<path d="M9.82617 26.5564L13.5487 21.438" stroke="#0050A9" stroke-width="1.8" stroke-miterlimit="10" stroke-linecap="round" stroke-linejoin="round"></path>
<path d="M12.877 12.8772L6.83972 6.83984" stroke="#0050A9" stroke-width="1.8" stroke-miterlimit="10" stroke-linecap="round" stroke-linejoin="round"></path>
<path d="M20.8633 20.8638L29.1599 29.1604" stroke="#0050A9" stroke-width="1.8" stroke-miterlimit="10" stroke-linecap="round" stroke-linejoin="round"></path>
<path d="M21.8439 14.1923L28.5721 10.5693" stroke="#0050A9" stroke-width="1.8" stroke-miterlimit="10" stroke-linecap="round" stroke-linejoin="round"></path>
</g>
<defs>
<clipPath id="clip0_163_1151">
<rect width="36" height="36" fill="white"></rect>
</clipPath>
</defs>
</svg>