<svg width="36" height="36" viewBox="0 0 36 36" fill="none" xmlns="http://www.w3.org/2000/svg">
<g clip-path="url(#clip0_163_1181)">
<path d="M1.05469 5.15479C1.05469 5.15479 17.9954 6.47139 22.3241 18.3644C24.1835 23.4731 21.5494 29.1219 16.4407 30.9813C11.3321 32.8407 5.68329 30.2066 3.82387 25.0979C1.41905 18.4907 4.60118 12.843 1.05469 5.15479Z" stroke="#0050A9" stroke-width="1.8" stroke-miterlimit="10" stroke-linecap="round" stroke-linejoin="round"></path>
<path d="M12.9805 8.58337C20.0411 -0.307223 34.9453 1.14234 34.9453 1.14234C30.1177 8.09786 32.2708 14.2124 28.7552 20.3016C27.3192 22.7888 24.9616 24.4118 22.3628 24.9892" stroke="#0050A9" stroke-width="1.8" stroke-miterlimit="10" stroke-linecap="round" stroke-linejoin="round"></path>
<path d="M20.8301 15.3396C22.9653 12.3447 25.2513 9.45757 27.6823 6.69141" stroke="#0050A9" stroke-width="1.8" stroke-miterlimit="10" stroke-linecap="round" stroke-linejoin="round"></path>
<path d="M17.8837 34.9453L16.5122 31.1773C14.0658 24.4557 10.9614 17.9921 7.24414 11.8809" stroke="#0050A9" stroke-width="1.8" stroke-miterlimit="10" stroke-linecap="round" stroke-linejoin="round"></path>
</g>
<defs>
<clipPath id="clip0_163_1181">
<rect width="36" height="36" fill="white"></rect>
</clipPath>
</defs>
</svg>