<svg width="16" height="16" viewBox="0 0 16 16" fill="none" xmlns="http://www.w3.org/2000/svg">
<path d="M1.66569 11.3333C1.19998 9.13551 1.19998 6.86449 1.66569 4.66667C1.72689 4.44347 1.84512 4.24005 2.00877 4.0764C2.17241 3.91276 2.37583 3.79453 2.59903 3.73333C6.17466 3.14097 9.8234 3.14097 13.399 3.73333C13.6222 3.79453 13.8256 3.91276 13.9893 4.0764C14.1529 4.24005 14.2712 4.44347 14.3324 4.66667C14.7981 6.86449 14.7981 9.13551 14.3324 11.3333C14.2712 11.5565 14.1529 11.7599 13.9893 11.9236C13.8256 12.0872 13.6222 12.2055 13.399 12.2667C9.82341 12.8591 6.17465 12.8591 2.59903 12.2667C2.37583 12.2055 2.17241 12.0872 2.00877 11.9236C1.84512 11.7599 1.72689 11.5565 1.66569 11.3333Z" stroke="white" stroke-opacity="0.7" stroke-width="1.33333" stroke-linecap="round" stroke-linejoin="round"></path>
<path d="M6.66602 10L9.99935 8L6.66602 6V10Z" stroke="white" stroke-opacity="0.7" stroke-width="1.33333" stroke-linecap="round" stroke-linejoin="round"></path>
</svg>